<?xml version="1.0" encoding="UTF-8"?>
<svg width="107px" height="32px" viewBox="0 0 107 32" version="1.1" xmlns="http://www.w3.org/2000/svg" xmlns:xlink="http://www.w3.org/1999/xlink">
    <!-- Generator: Sketch 49.2 (51160) - http://www.bohemiancoding.com/sketch -->
    <title>logo_trust</title>
    <desc>Created with Sketch.</desc>
    <defs></defs>
    <g id="Page-1" stroke="none" stroke-width="1" fill="none" fill-rule="evenodd">
        <g id="landing-copy" transform="translate(-97.000000, -61.000000)" fill="#FFFFFF">
            <g id="logo_trust" transform="translate(97.000000, 61.000000)">
                <g id="Group-40-Copy-3">
                    <path d="M26.7557777,26.7190268 L29.841896,26.7190268 L29.841896,11.8076937 L14.9184905,11.8076937 L14.9184905,26.7190268 L18.0315565,26.7190268 L18.0276851,31.6901901 L11.1922628,31.6901901 C10.5059283,31.6901901 9.94954431,31.1338061 9.94954431,30.4474717 L9.94954431,8.07840021 C9.94954431,7.39206576 10.5059283,6.83568176 11.1922628,6.83568176 L33.5909913,6.83495088 C34.2773257,6.83495088 34.8337097,7.39133488 34.8337097,8.07766933 C34.8337097,8.07791303 34.8337097,8.07815673 34.8337095,8.07840042 L34.8190876,30.4474714 C34.818684,31.1335203 34.2624183,31.6894588 33.5763693,31.6894588 L26.7557777,31.6901901 L26.7557777,26.7190268 Z" id="Path-44-Copy" transform="translate(22.391627, 19.262571) scale(-1, -1) translate(-22.391627, -19.262571) "></path>
                    <path d="M16.8062334,19.8840734 L19.8923517,19.8840734 L19.8923517,4.97274029 L4.96894614,4.97274029 L4.96894614,19.8840734 L8.08201214,19.8840734 L8.07814078,24.8552367 L1.24271845,24.8552367 C0.556384,24.8552367 5.28140938e-16,24.2988527 4.4408921e-16,23.6125183 L0,1.24344682 C-8.40517283e-17,0.557112369 0.556384,0.000728368642 1.24271845,0.000728368642 L23.641447,-2.51075152e-06 C24.3277814,-2.51075152e-06 24.8841654,0.556381489 24.8841654,1.24271594 C24.8841654,1.24295963 24.8841654,1.24320333 24.8841652,1.24344703 L24.8695432,23.6125181 C24.8691396,24.2985669 24.312874,24.8545054 23.626825,24.8545054 L16.8062334,24.8552367 L16.8062334,19.8840734 Z" id="Path-44-Copy-2"></path>
                </g>
                <g id="logo_trust-copy-2" transform="translate(44.716418, 3.200000)" fill-rule="nonzero">
                    <path d="M38.6959471,6.28919293 C38.6959471,2.28693122 40.6142016,3.55271368e-15 44.3457417,3.55271368e-15 C48.0772818,3.55271368e-15 49.9955362,2.28693122 49.9955362,6.28919293 C49.9955362,6.72344043 49.6528438,7.07527601 49.229881,7.07527601 L46.3684505,7.07527601 L46.3684505,6.03878743 C46.3684505,4.25240306 45.6709735,3.57356115 44.450196,3.57356115 C43.2296757,3.57356115 42.5324561,4.25240306 42.5324561,6.03878743 C42.5324561,7.86135909 43.2993977,9.21957118 45.8104175,11.4708434 C49.0189142,14.3650344 50.0302686,16.4377474 50.0302686,19.2965435 C50.0302686,23.2988052 48.0772818,25.5857364 44.3110093,25.5857364 C40.5444796,25.5857364 38.5914928,23.2988052 38.5914928,19.2965435 L38.5914928,17.7600363 L41.2669124,17.7600363 C41.7922712,17.7600363 42.2183213,18.1974535 42.2183213,18.7370932 L42.2183213,19.5466848 C42.2183213,21.3333333 42.9857775,21.9765162 44.2062977,21.9765162 C45.4270753,21.9765162 46.1940169,21.3333333 46.1940169,19.5466848 C46.1940169,17.7243773 45.4270753,16.3661652 42.9157982,14.114893 C39.7075588,11.220702 38.6959471,9.14798902 38.6959471,6.28919293 Z M50.4262173,0.26414082 L61.3319159,0.26414082 C61.857532,0.26414082 62.2835821,0.701558018 62.2835821,1.24119771 L62.2835821,3.83743783 L58.2728969,3.83743783 L58.2728969,25.2780123 L54.4366452,25.2780123 L54.4366452,4.81449473 C54.4366452,4.27485503 54.0105951,3.83743783 53.484979,3.83743783 L50.4262173,3.83743783 L50.4262173,0.26414082 Z M33.5396091,0.26414082 L36.2150287,0.26414082 C36.7406448,0.26414082 37.1666949,0.701558018 37.1666949,1.24119771 L37.1666949,19.3105429 C37.1666949,23.3128046 35.2137081,25.6 31.4474357,25.6 C27.680906,25.6 25.7276619,23.3128046 25.7276619,19.3105429 L25.7276619,0.26414082 L28.6122473,0.26414082 C29.1378635,0.26414082 29.5639135,0.701558018 29.5639135,1.24119771 L29.5639135,19.5606843 C29.5639135,21.3475969 30.3313697,21.9905157 31.55189,21.9905157 C32.7726675,21.9905157 33.5396091,21.3475969 33.5396091,19.5606843 L33.5396091,0.26414082 Z M12.8638309,0.26414082 L18.6530694,0.26414082 C22.628765,0.26414082 24.3375963,2.1580305 24.3375963,6.01712788 L24.3375963,7.98286386 C24.3375963,10.5555955 23.5354078,12.1993438 21.8265765,13.02135 L21.8265765,13.092668 C23.744831,13.9146743 24.3725859,15.7729049 24.3725859,18.3815597 L24.3725859,22.2409212 C24.3725859,23.4557048 24.4073183,24.3492932 24.7909177,25.2780123 L20.8849441,25.2780123 C20.6755209,24.6350936 20.536077,24.242052 20.536077,22.204998 L20.536077,18.2745826 C20.536077,15.9517283 19.7688781,15.0937989 18.0253145,15.0937989 L16.6998253,15.0937989 L16.6998253,25.2780123 L12.8638309,25.2780123 L12.8638309,0.26414082 Z M16.6998253,3.83743783 L16.6998253,11.5205019 L18.199748,11.5205019 C19.6294342,11.5205019 20.5013446,10.877319 20.5013446,8.87618812 L20.5013446,6.41043356 C20.5013446,4.62378506 19.9085793,3.83743783 18.5483578,3.83743783 L16.6998253,3.83743783 Z M-1.21502808e-12,0.26414082 L10.9056986,0.26414082 C11.4313147,0.26414082 11.8573648,0.701558018 11.8573648,1.24119771 L11.8573648,3.83743783 L7.8466796,3.83743783 L7.8466796,25.2780123 L4.01042793,25.2780123 L4.01042793,4.81449473 C4.01042793,4.27485503 3.58412058,3.83743783 3.05876172,3.83743783 L-1.21502808e-12,3.83743783 L-1.21502808e-12,0.26414082 Z" id="Combined-Shape"></path>
                </g>
            </g>
        </g>
    </g>
</svg>